<svg xmlns="http://www.w3.org/2000/svg" xmlns:xlink="http://www.w3.org/1999/xlink" width="500" zoomAndPan="magnify" viewBox="0 0 375 374.999991" height="500" preserveAspectRatio="xMidYMid meet" version="1.0"><defs><g><g id="id1"/><g id="id2"/></g><clipPath id="id3"><path d="M 127.339844 126.316406 L 234.367188 126.316406 L 234.367188 203.921875 L 127.339844 203.921875 Z M 127.339844 126.316406 " clip-rule="nonzero"/></clipPath><clipPath id="id4"><path d="M 221.269531 203.730469 L 221.261719 203.730469 C 219.972656 203.367188 218.769531 202.914062 217.648438 202.417969 C 214.066406 200.8125 211.179688 198.722656 208.5625 196.589844 L 207.527344 195.710938 L 206.695312 194.976562 L 205.023438 193.503906 C 203.859375 192.410156 202.644531 191.269531 201.566406 190.171875 C 199.355469 187.980469 197.269531 185.691406 195.222656 183.40625 C 193.21875 181.097656 191.289062 178.75 189.4375 176.390625 C 185.703125 171.691406 182.335938 166.878906 179.003906 162.222656 C 177.355469 159.894531 175.722656 157.585938 174.105469 155.289062 C 173.296875 154.160156 172.496094 153.03125 171.695312 151.914062 C 171.292969 151.375 170.898438 150.859375 170.503906 150.332031 C 170.222656 149.960938 169.941406 149.597656 169.640625 149.222656 C 169.535156 149.078125 169.421875 148.945312 169.308594 148.800781 C 166.027344 144.722656 162.539062 141.039062 158.605469 138.242188 C 154.648438 135.46875 150.390625 133.585938 145.730469 132.9375 C 145.253906 132.90625 144.785156 132.875 144.296875 132.820312 C 143.777344 132.839844 143.269531 132.851562 142.75 132.875 C 142.261719 132.964844 141.742188 132.988281 141.253906 133.109375 C 140.789062 133.265625 140.269531 133.320312 139.832031 133.535156 C 137.972656 134.21875 136.3125 135.417969 134.972656 137.003906 C 133.644531 138.585938 132.648438 140.511719 131.933594 142.527344 C 131.203125 144.546875 130.800781 146.667969 130.476562 148.851562 C 129.222656 157.398438 130.207031 165.605469 132.328125 172.414062 C 133.394531 175.832031 134.683594 178.945312 136.15625 181.6875 C 137.632812 184.398438 139.417969 186.707031 141.566406 188.144531 C 143.695312 189.59375 146.09375 190.113281 148.074219 189.851562 C 150.078125 189.574219 151.585938 188.601562 152.6875 187.78125 C 153.777344 186.925781 154.492188 186.117188 154.949219 185.578125 C 154.980469 185.535156 155.011719 185.507812 155.042969 185.476562 C 155.011719 185.507812 154.992188 185.546875 154.960938 185.578125 C 154.503906 186.136719 153.808594 186.957031 152.71875 187.824219 C 151.617188 188.652344 150.121094 189.65625 148.097656 189.964844 C 146.070312 190.246094 143.664062 189.738281 141.421875 188.363281 C 139.179688 186.964844 137.257812 184.667969 135.667969 181.957031 C 134.101562 179.234375 132.554688 176.191406 131.277344 172.765625 C 130 169.351562 128.941406 165.59375 128.214844 161.539062 C 127.5625 157.460938 127.175781 153.136719 127.40625 148.53125 C 127.601562 144.089844 128.234375 138.894531 131.257812 134.300781 C 132.730469 132.015625 134.871094 129.914062 137.539062 128.539062 C 138.179688 128.144531 138.898438 127.9375 139.59375 127.625 C 140.300781 127.367188 141.027344 127.203125 141.753906 126.996094 C 142.492188 126.851562 143.226562 126.746094 143.976562 126.632812 C 144.765625 126.59375 145.5625 126.550781 146.363281 126.53125 C 147.007812 126.550781 147.640625 126.582031 148.285156 126.601562 C 148.398438 126.613281 148.210938 126.582031 148.566406 126.632812 L 148.699219 126.644531 L 148.96875 126.675781 L 149.5 126.746094 L 150.566406 126.882812 C 151.285156 126.953125 151.980469 127.140625 152.695312 127.273438 C 153.414062 127.398438 154.121094 127.59375 154.824219 127.792969 C 157.636719 128.578125 160.390625 129.707031 162.996094 131.105469 C 167.066406 133.308594 170.800781 136.09375 174.230469 139.195312 C 174.769531 139.671875 175.300781 140.167969 175.816406 140.664062 C 176.234375 141.070312 176.636719 141.472656 177.042969 141.875 C 178.070312 142.902344 179.128906 144.019531 180.125 145.09375 L 181.582031 146.699219 L 182.992188 148.3125 C 184.851562 150.464844 186.71875 152.640625 188.597656 154.824219 C 192.292969 159.191406 196.011719 163.558594 199.769531 167.808594 C 203.558594 172.054688 207.421875 176.160156 211.503906 179.980469 C 212.519531 180.972656 213.515625 181.792969 214.511719 182.722656 L 216.195312 184.183594 L 217.035156 184.90625 L 217.699219 185.453125 C 219.683594 187.039062 221.71875 188.382812 223.578125 189.191406 C 224.488281 189.613281 225.371094 189.925781 226.132812 190.050781 C 226.503906 190.113281 226.878906 190.183594 227.199219 190.171875 C 227.367188 190.183594 227.53125 190.195312 227.675781 190.164062 C 227.792969 190.152344 228.03125 190.164062 228.03125 190.140625 C 228.050781 190.132812 228.0625 190.140625 228.082031 190.140625 L 228.113281 190.164062 C 228.125 190.164062 228.113281 190.183594 228.238281 190.140625 L 229.070312 189.894531 C 229.070312 189.894531 229.089844 189.894531 229.101562 189.882812 C 229.109375 189.882812 229.121094 189.882812 229.140625 189.875 C 229.171875 189.863281 229.203125 189.851562 229.246094 189.84375 L 229.152344 189.863281 L 229.285156 189.8125 L 229.597656 189.675781 C 229.816406 189.605469 230.023438 189.519531 230.191406 189.417969 C 230.96875 189.078125 231.527344 188.664062 232.007812 188.226562 C 232.472656 187.792969 232.859375 187.308594 233.179688 186.6875 C 233.492188 186.054688 233.730469 185.269531 233.90625 184.355469 C 234.175781 183.023438 234.21875 181.398438 234.09375 179.671875 C 234.550781 185.21875 234.65625 201.226562 221.269531 203.730469 Z M 221.269531 203.730469 " clip-rule="nonzero"/></clipPath><clipPath id="id5"><path d="M 221.269531 203.730469 L 221.261719 203.730469 C 219.972656 203.367188 218.769531 202.914062 217.648438 202.417969 C 214.066406 200.8125 211.179688 198.722656 208.5625 196.589844 L 207.527344 195.710938 L 206.695312 194.976562 L 205.023438 193.503906 C 203.859375 192.410156 202.644531 191.269531 201.566406 190.171875 C 199.355469 187.980469 197.269531 185.691406 195.222656 183.40625 C 193.21875 181.097656 191.289062 178.75 189.4375 176.390625 C 185.703125 171.691406 182.335938 166.878906 179.003906 162.222656 C 177.355469 159.894531 175.722656 157.585938 174.105469 155.289062 C 173.296875 154.160156 172.496094 153.03125 171.695312 151.914062 C 171.292969 151.375 170.898438 150.859375 170.503906 150.332031 C 170.222656 149.960938 169.941406 149.597656 169.640625 149.222656 C 169.535156 149.078125 169.421875 148.945312 169.308594 148.800781 C 166.027344 144.722656 162.539062 141.039062 158.605469 138.242188 C 154.648438 135.46875 150.390625 133.585938 145.730469 132.9375 C 145.253906 132.90625 144.785156 132.875 144.296875 132.820312 C 143.777344 132.839844 143.269531 132.851562 142.75 132.875 C 142.261719 132.964844 141.742188 132.988281 141.253906 133.109375 C 140.789062 133.265625 140.269531 133.320312 139.832031 133.535156 C 137.972656 134.21875 136.3125 135.417969 134.972656 137.003906 C 133.644531 138.585938 132.648438 140.511719 131.933594 142.527344 C 131.203125 144.546875 130.800781 146.667969 130.476562 148.851562 C 129.222656 157.398438 130.207031 165.605469 132.328125 172.414062 C 133.394531 175.832031 134.683594 178.945312 136.15625 181.6875 C 137.632812 184.398438 139.417969 186.707031 141.566406 188.144531 C 143.695312 189.59375 146.09375 190.113281 148.074219 189.851562 C 150.078125 189.574219 151.585938 188.601562 152.6875 187.78125 C 153.777344 186.925781 154.492188 186.117188 154.949219 185.578125 C 154.980469 185.535156 155.011719 185.507812 155.042969 185.476562 C 155.011719 185.507812 154.992188 185.546875 154.960938 185.578125 C 154.503906 186.136719 153.808594 186.957031 152.71875 187.824219 C 151.617188 188.652344 150.121094 189.65625 148.097656 189.964844 C 146.070312 190.246094 143.664062 189.738281 141.421875 188.363281 C 139.179688 186.964844 137.257812 184.667969 135.667969 181.957031 C 134.101562 179.234375 132.554688 176.191406 131.277344 172.765625 C 130 169.351562 128.941406 165.59375 128.214844 161.539062 C 127.5625 157.460938 127.175781 153.136719 127.40625 148.53125 C 127.601562 144.089844 128.234375 138.894531 131.257812 134.300781 C 132.730469 132.015625 134.871094 129.914062 137.539062 128.539062 C 138.179688 128.144531 138.898438 127.9375 139.59375 127.625 C 140.300781 127.367188 141.027344 127.203125 141.753906 126.996094 C 142.492188 126.851562 143.226562 126.746094 143.976562 126.632812 C 144.765625 126.59375 145.5625 126.550781 146.363281 126.53125 C 147.007812 126.550781 147.640625 126.582031 148.285156 126.601562 C 148.398438 126.613281 148.210938 126.582031 148.566406 126.632812 L 148.699219 126.644531 L 148.96875 126.675781 L 149.5 126.746094 L 150.566406 126.882812 C 151.285156 126.953125 151.980469 127.140625 152.695312 127.273438 C 153.414062 127.398438 154.121094 127.59375 154.824219 127.792969 C 157.636719 128.578125 160.390625 129.707031 162.996094 131.105469 C 167.066406 133.308594 170.800781 136.09375 174.230469 139.195312 C 174.769531 139.671875 175.300781 140.167969 175.816406 140.664062 C 176.234375 141.070312 176.636719 141.472656 177.042969 141.875 C 178.070312 142.902344 179.128906 144.019531 180.125 145.09375 L 181.582031 146.699219 L 182.992188 148.3125 C 184.851562 150.464844 186.71875 152.640625 188.597656 154.824219 C 192.292969 159.191406 196.011719 163.558594 199.769531 167.808594 C 203.558594 172.054688 207.421875 176.160156 211.503906 179.980469 C 212.519531 180.972656 213.515625 181.792969 214.511719 182.722656 L 216.195312 184.183594 L 217.035156 184.90625 L 217.699219 185.453125 C 219.683594 187.039062 221.71875 188.382812 223.578125 189.191406 C 224.488281 189.613281 225.371094 189.925781 226.132812 190.050781 C 226.503906 190.113281 226.878906 190.183594 227.199219 190.171875 C 227.367188 190.183594 227.53125 190.195312 227.675781 190.164062 C 227.792969 190.152344 228.03125 190.164062 228.03125 190.140625 C 228.050781 190.132812 228.0625 190.140625 228.082031 190.140625 L 228.113281 190.164062 C 228.125 190.164062 228.113281 190.183594 228.238281 190.140625 L 229.070312 189.894531 C 229.070312 189.894531 229.089844 189.894531 229.101562 189.882812 C 229.109375 189.882812 229.121094 189.882812 229.140625 189.875 C 229.171875 189.863281 229.203125 189.851562 229.246094 189.84375 L 229.152344 189.863281 L 229.285156 189.8125 L 229.597656 189.675781 C 229.816406 189.605469 230.023438 189.519531 230.191406 189.417969 C 230.96875 189.078125 231.527344 188.664062 232.007812 188.226562 C 232.472656 187.792969 232.859375 187.308594 233.179688 186.6875 C 233.492188 186.054688 233.730469 185.269531 233.90625 184.355469 C 234.175781 183.023438 234.21875 181.398438 234.09375 179.671875 C 234.550781 185.21875 234.65625 201.226562 221.269531 203.730469 " clip-rule="nonzero"/></clipPath><clipPath id="id6"><path d="M 158.734375 77.742188 L 91.902344 181.0625 L 203.097656 252.519531 L 269.929688 149.199219 Z M 158.734375 77.742188 " clip-rule="nonzero"/></clipPath><linearGradient x1="-0.0270797" gradientTransform="matrix(105.20757, 67.610021, -67.830244, 104.865994, 122.357409, 140.466587)" y1="0" x2="1.026788" gradientUnits="userSpaceOnUse" y2="0" xlink:type="simple" xlink:actuate="onLoad" id="id7" xlink:show="other"><stop stop-opacity="1" stop-color="rgb(96.099854%, 52.49939%, 8.599854%)" offset="0"/><stop stop-opacity="1" stop-color="rgb(96.099854%, 52.34375%, 8.599854%)" offset="0.0625"/><stop stop-opacity="1" stop-color="rgb(96.099854%, 51.992798%, 8.599854%)" offset="0.0703125"/><stop stop-opacity="1" stop-color="rgb(96.099854%, 51.779175%, 8.599854%)" offset="0.078125"/><stop stop-opacity="1" stop-color="rgb(96.099854%, 51.579285%, 8.599854%)" offset="0.0859375"/><stop stop-opacity="1" stop-color="rgb(96.099854%, 51.382446%, 8.599854%)" offset="0.09375"/><stop stop-opacity="1" stop-color="rgb(96.299744%, 50.982666%, 8.599854%)" offset="0.0976562"/><stop stop-opacity="1" stop-color="rgb(96.499634%, 50.59967%, 8.599854%)" offset="0.101562"/><stop stop-opacity="1" stop-color="rgb(96.476746%, 50.59967%, 8.599854%)" offset="0.109375"/><stop stop-opacity="1" stop-color="rgb(96.276855%, 50.563049%, 8.634949%)" offset="0.117188"/><stop stop-opacity="1" stop-color="rgb(96.099854%, 50.350952%, 8.834839%)" offset="0.125"/><stop stop-opacity="1" stop-color="rgb(96.099854%, 49.983215%, 8.996582%)" offset="0.140625"/><stop stop-opacity="1" stop-color="rgb(96.099854%, 49.552917%, 8.796692%)" offset="0.144531"/><stop stop-opacity="1" stop-color="rgb(96.099854%, 49.311829%, 8.599854%)" offset="0.148438"/><stop stop-opacity="1" stop-color="rgb(96.099854%, 49.154663%, 8.599854%)" offset="0.15625"/><stop stop-opacity="1" stop-color="rgb(96.099854%, 48.986816%, 8.610535%)" offset="0.164062"/><stop stop-opacity="1" stop-color="rgb(96.099854%, 48.780823%, 8.810425%)" offset="0.171875"/><stop stop-opacity="1" stop-color="rgb(96.099854%, 48.39325%, 8.999634%)" offset="0.179688"/><stop stop-opacity="1" stop-color="rgb(96.099854%, 48.008728%, 8.999634%)" offset="0.1875"/><stop stop-opacity="1" stop-color="rgb(96.099854%, 47.657776%, 8.988953%)" offset="0.203125"/><stop stop-opacity="1" stop-color="rgb(96.095276%, 47.499084%, 8.789062%)" offset="0.210938"/><stop stop-opacity="1" stop-color="rgb(95.895386%, 47.499084%, 8.599854%)" offset="0.21875"/><stop stop-opacity="1" stop-color="rgb(95.698547%, 47.305298%, 8.79364%)" offset="0.226562"/><stop stop-opacity="1" stop-color="rgb(95.698547%, 47.091675%, 8.99353%)" offset="0.234375"/><stop stop-opacity="1" stop-color="rgb(95.698547%, 46.882629%, 8.999634%)" offset="0.25"/><stop stop-opacity="1" stop-color="rgb(95.698547%, 46.498108%, 8.999634%)" offset="0.257812"/><stop stop-opacity="1" stop-color="rgb(95.698547%, 46.30127%, 8.999634%)" offset="0.265625"/><stop stop-opacity="1" stop-color="rgb(95.698547%, 46.099854%, 8.799744%)" offset="0.269531"/><stop stop-opacity="1" stop-color="rgb(95.698547%, 45.899963%, 8.599854%)" offset="0.273437"/><stop stop-opacity="1" stop-color="rgb(95.698547%, 45.899963%, 8.605957%)" offset="0.28125"/><stop stop-opacity="1" stop-color="rgb(95.698547%, 45.896912%, 8.805847%)" offset="0.289062"/><stop stop-opacity="1" stop-color="rgb(95.698547%, 45.700073%, 8.999634%)" offset="0.296875"/><stop stop-opacity="1" stop-color="rgb(95.698547%, 45.315552%, 8.999634%)" offset="0.3125"/><stop stop-opacity="1" stop-color="rgb(95.498657%, 44.91272%, 8.999634%)" offset="0.316406"/><stop stop-opacity="1" stop-color="rgb(95.298767%, 44.699097%, 8.999634%)" offset="0.320312"/><stop stop-opacity="1" stop-color="rgb(95.298767%, 44.697571%, 8.998108%)" offset="0.328125"/><stop stop-opacity="1" stop-color="rgb(95.298767%, 44.502258%, 8.802795%)" offset="0.335937"/><stop stop-opacity="1" stop-color="rgb(95.298767%, 44.303894%, 8.79364%)" offset="0.34375"/><stop stop-opacity="1" stop-color="rgb(95.298767%, 44.114685%, 8.988953%)" offset="0.351562"/><stop stop-opacity="1" stop-color="rgb(95.298767%, 43.910217%, 8.999634%)" offset="0.359375"/><stop stop-opacity="1" stop-color="rgb(95.298767%, 43.695068%, 8.999634%)" offset="0.375"/><stop stop-opacity="1" stop-color="rgb(95.298767%, 43.315125%, 8.815002%)" offset="0.390625"/><stop stop-opacity="1" stop-color="rgb(95.298767%, 42.915344%, 8.815002%)" offset="0.394531"/><stop stop-opacity="1" stop-color="rgb(95.298767%, 42.698669%, 8.999634%)" offset="0.398437"/><stop stop-opacity="1" stop-color="rgb(95.298767%, 42.698669%, 8.999634%)" offset="0.40625"/><stop stop-opacity="1" stop-color="rgb(95.298767%, 42.549133%, 8.999634%)" offset="0.421875"/><stop stop-opacity="1" stop-color="rgb(95.298767%, 42.216492%, 8.999634%)" offset="0.429687"/><stop stop-opacity="1" stop-color="rgb(95.298767%, 42.016602%, 8.999634%)" offset="0.4375"/><stop stop-opacity="1" stop-color="rgb(95.298767%, 41.802979%, 8.999634%)" offset="0.441406"/><stop stop-opacity="1" stop-color="rgb(95.298767%, 41.607666%, 8.999634%)" offset="0.445312"/><stop stop-opacity="1" stop-color="rgb(95.298767%, 41.603088%, 9.190369%)" offset="0.453125"/><stop stop-opacity="1" stop-color="rgb(95.298767%, 41.412354%, 9.390259%)" offset="0.460937"/><stop stop-opacity="1" stop-color="rgb(95.298767%, 41.212463%, 9.399414%)" offset="0.46875"/><stop stop-opacity="1" stop-color="rgb(95.298767%, 41.003418%, 9.399414%)" offset="0.484375"/><stop stop-opacity="1" stop-color="rgb(95.298767%, 40.618896%, 9.399414%)" offset="0.5"/><stop stop-opacity="1" stop-color="rgb(95.118713%, 40.414429%, 9.577942%)" offset="0.507812"/><stop stop-opacity="1" stop-color="rgb(94.918823%, 40.19928%, 9.777832%)" offset="0.511719"/><stop stop-opacity="1" stop-color="rgb(94.898987%, 39.99939%, 9.799194%)" offset="0.515625"/><stop stop-opacity="1" stop-color="rgb(94.898987%, 39.805603%, 9.991455%)" offset="0.523438"/><stop stop-opacity="1" stop-color="rgb(94.898987%, 39.605713%, 10.191345%)" offset="0.53125"/><stop stop-opacity="1" stop-color="rgb(94.898987%, 39.414978%, 10.198975%)" offset="0.539062"/><stop stop-opacity="1" stop-color="rgb(94.898987%, 39.215088%, 10.198975%)" offset="0.546875"/><stop stop-opacity="1" stop-color="rgb(94.898987%, 39.025879%, 10.198975%)" offset="0.554687"/><stop stop-opacity="1" stop-color="rgb(94.898987%, 38.825989%, 10.366821%)" offset="0.5625"/><stop stop-opacity="1" stop-color="rgb(95.083618%, 38.612366%, 10.566711%)" offset="0.570312"/><stop stop-opacity="1" stop-color="rgb(95.283508%, 38.412476%, 10.598755%)" offset="0.578125"/><stop stop-opacity="1" stop-color="rgb(95.298767%, 38.221741%, 10.598755%)" offset="0.585938"/><stop stop-opacity="1" stop-color="rgb(95.298767%, 38.021851%, 10.598755%)" offset="0.59375"/><stop stop-opacity="1" stop-color="rgb(95.298767%, 37.814331%, 10.598755%)" offset="0.609375"/><stop stop-opacity="1" stop-color="rgb(95.298767%, 37.614441%, 10.778809%)" offset="0.617187"/><stop stop-opacity="1" stop-color="rgb(95.298767%, 37.467957%, 10.978699%)" offset="0.625"/><stop stop-opacity="1" stop-color="rgb(95.298767%, 37.316895%, 10.998535%)" offset="0.632812"/><stop stop-opacity="1" stop-color="rgb(95.298767%, 36.968994%, 10.998535%)" offset="0.636719"/><stop stop-opacity="1" stop-color="rgb(95.298767%, 36.639404%, 10.998535%)" offset="0.640625"/><stop stop-opacity="1" stop-color="rgb(95.115662%, 36.569214%, 11.181641%)" offset="0.648438"/><stop stop-opacity="1" stop-color="rgb(94.915771%, 36.499023%, 11.381531%)" offset="0.65625"/><stop stop-opacity="1" stop-color="rgb(94.898987%, 36.325073%, 11.399841%)" offset="0.664062"/><stop stop-opacity="1" stop-color="rgb(94.898987%, 36.125183%, 11.399841%)" offset="0.671875"/><stop stop-opacity="1" stop-color="rgb(94.898987%, 35.935974%, 11.399841%)" offset="0.679687"/><stop stop-opacity="1" stop-color="rgb(94.898987%, 35.736084%, 11.399841%)" offset="0.6875"/><stop stop-opacity="1" stop-color="rgb(94.898987%, 35.523987%, 11.399841%)" offset="0.695312"/><stop stop-opacity="1" stop-color="rgb(94.898987%, 35.324097%, 11.399841%)" offset="0.703125"/><stop stop-opacity="1" stop-color="rgb(94.898987%, 35.131836%, 11.399841%)" offset="0.710938"/><stop stop-opacity="1" stop-color="rgb(94.898987%, 34.931946%, 11.399841%)" offset="0.71875"/><stop stop-opacity="1" stop-color="rgb(94.898987%, 34.725952%, 11.399841%)" offset="0.734375"/><stop stop-opacity="1" stop-color="rgb(94.898987%, 34.359741%, 11.399841%)" offset="0.75"/><stop stop-opacity="1" stop-color="rgb(94.898987%, 33.976746%, 11.555481%)" offset="0.765625"/><stop stop-opacity="1" stop-color="rgb(94.898987%, 33.743286%, 11.755371%)" offset="0.78125"/><stop stop-opacity="1" stop-color="rgb(94.898987%, 33.518982%, 11.619568%)" offset="0.796875"/><stop stop-opacity="1" stop-color="rgb(94.744873%, 33.319092%, 11.419678%)" offset="0.804688"/><stop stop-opacity="1" stop-color="rgb(94.544983%, 33.299255%, 11.399841%)" offset="0.8125"/><stop stop-opacity="1" stop-color="rgb(94.499207%, 33.13446%, 11.399841%)" offset="0.820312"/><stop stop-opacity="1" stop-color="rgb(94.499207%, 32.93457%, 11.56311%)" offset="0.828125"/><stop stop-opacity="1" stop-color="rgb(94.499207%, 32.740784%, 11.763%)" offset="0.835938"/><stop stop-opacity="1" stop-color="rgb(94.499207%, 32.540894%, 11.799622%)" offset="0.84375"/><stop stop-opacity="1" stop-color="rgb(94.499207%, 32.348633%, 11.799622%)" offset="0.859375"/><stop stop-opacity="1" stop-color="rgb(94.499207%, 31.999207%, 11.799622%)" offset="0.863281"/><stop stop-opacity="1" stop-color="rgb(94.499207%, 31.799316%, 11.799622%)" offset="0.867188"/><stop stop-opacity="1" stop-color="rgb(94.499207%, 31.642151%, 11.799622%)" offset="0.875"/><stop stop-opacity="1" stop-color="rgb(94.499207%, 31.295776%, 11.799622%)" offset="0.890625"/><stop stop-opacity="1" stop-color="rgb(94.499207%, 31.053162%, 11.799622%)" offset="0.90625"/><stop stop-opacity="1" stop-color="rgb(94.499207%, 30.844116%, 11.799622%)" offset="0.914062"/><stop stop-opacity="1" stop-color="rgb(94.499207%, 30.644226%, 11.949158%)" offset="0.921875"/><stop stop-opacity="1" stop-color="rgb(94.499207%, 30.453491%, 12.149048%)" offset="0.929688"/><stop stop-opacity="1" stop-color="rgb(94.499207%, 30.253601%, 12.199402%)" offset="0.9375"/><stop stop-opacity="1" stop-color="rgb(94.499207%, 30.044556%, 12.199402%)" offset="0.945312"/><stop stop-opacity="1" stop-color="rgb(94.499207%, 29.844666%, 12.199402%)" offset="0.953125"/><stop stop-opacity="1" stop-color="rgb(94.499207%, 29.649353%, 12.199402%)" offset="0.960938"/><stop stop-opacity="1" stop-color="rgb(94.499207%, 29.449463%, 12.306213%)" offset="0.96875"/><stop stop-opacity="1" stop-color="rgb(94.499207%, 29.399109%, 12.457275%)" offset="1"/></linearGradient><clipPath id="id8"><path d="M 155.78125 149.140625 L 170.726562 149.140625 L 170.726562 184.460938 L 155.78125 184.460938 Z M 155.78125 149.140625 " clip-rule="nonzero"/></clipPath><clipPath id="id9"><path d="M 169.640625 149.222656 C 169.222656 150.238281 168.820312 151.230469 168.425781 152.203125 C 167.085938 155.578125 165.976562 158.777344 164.894531 161.703125 C 163.847656 164.652344 162.839844 167.335938 162.019531 169.808594 C 160.460938 174.753906 159.070312 178.582031 157.804688 181.066406 C 157.191406 182.308594 156.621094 183.21875 156.246094 183.820312 C 156.089844 184.039062 155.964844 184.222656 155.875 184.367188 C 155.976562 184.234375 156.101562 184.046875 156.257812 183.828125 C 156.640625 183.230469 157.222656 182.328125 157.847656 181.085938 C 158.480469 179.84375 159.183594 178.28125 159.902344 176.398438 C 160.640625 174.515625 161.355469 172.320312 162.257812 169.890625 C 164.136719 165.066406 166.410156 159.167969 169.433594 152.628906 C 169.777344 151.871094 170.140625 151.109375 170.503906 150.332031 C 170.222656 149.960938 169.941406 149.597656 169.640625 149.222656 Z M 169.640625 149.222656 " clip-rule="nonzero"/></clipPath><clipPath id="id10"><path d="M 169.640625 149.222656 C 169.222656 150.238281 168.820312 151.230469 168.425781 152.203125 C 167.085938 155.578125 165.976562 158.777344 164.894531 161.703125 C 163.847656 164.652344 162.839844 167.335938 162.019531 169.808594 C 160.460938 174.753906 159.070312 178.582031 157.804688 181.066406 C 157.191406 182.308594 156.621094 183.21875 156.246094 183.820312 C 156.089844 184.039062 155.964844 184.222656 155.875 184.367188 C 155.976562 184.234375 156.101562 184.046875 156.257812 183.828125 C 156.640625 183.230469 157.222656 182.328125 157.847656 181.085938 C 158.480469 179.84375 159.183594 178.28125 159.902344 176.398438 C 160.640625 174.515625 161.355469 172.320312 162.257812 169.890625 C 164.136719 165.066406 166.410156 159.167969 169.433594 152.628906 C 169.777344 151.871094 170.140625 151.109375 170.503906 150.332031 C 170.222656 149.960938 169.941406 149.597656 169.640625 149.222656 " clip-rule="nonzero"/></clipPath><clipPath id="id11"><path d="M 163.871094 141.964844 L 138.320312 165.15625 L 162.503906 191.625 L 188.054688 168.4375 Z M 163.871094 141.964844 " clip-rule="nonzero"/></clipPath><linearGradient x1="0.10438" gradientTransform="matrix(111.090115, 121.596249, -121.992322, 110.729443, 139.264543, 141.082547)" y1="0" x2="0.322073" gradientUnits="userSpaceOnUse" y2="0" xlink:type="simple" xlink:actuate="onLoad" id="id12" xlink:show="other"><stop stop-opacity="1" stop-color="rgb(19.999695%, 40.042114%, 72.499084%)" offset="0"/><stop stop-opacity="1" stop-color="rgb(19.999695%, 40.220642%, 72.523499%)" offset="0.03125"/><stop stop-opacity="1" stop-color="rgb(19.999695%, 40.41748%, 72.723389%)" offset="0.046875"/><stop stop-opacity="1" stop-color="rgb(19.999695%, 40.617371%, 72.898865%)" offset="0.0625"/><stop stop-opacity="1" stop-color="rgb(20.021057%, 40.820312%, 72.920227%)" offset="0.078125"/><stop stop-opacity="1" stop-color="rgb(20.220947%, 41.020203%, 73.120117%)" offset="0.09375"/><stop stop-opacity="1" stop-color="rgb(20.399475%, 41.223145%, 73.298645%)" offset="0.109375"/><stop stop-opacity="1" stop-color="rgb(20.399475%, 41.423035%, 73.318481%)" offset="0.125"/><stop stop-opacity="1" stop-color="rgb(20.399475%, 41.61377%, 73.518372%)" offset="0.140625"/><stop stop-opacity="1" stop-color="rgb(20.399475%, 41.815186%, 73.699951%)" offset="0.15625"/><stop stop-opacity="1" stop-color="rgb(20.399475%, 42.016602%, 73.699951%)" offset="0.171875"/><stop stop-opacity="1" stop-color="rgb(20.399475%, 42.216492%, 73.699951%)" offset="0.1875"/><stop stop-opacity="1" stop-color="rgb(20.399475%, 42.41333%, 73.718262%)" offset="0.203125"/><stop stop-opacity="1" stop-color="rgb(20.399475%, 42.562866%, 73.918152%)" offset="0.21875"/><stop stop-opacity="1" stop-color="rgb(20.399475%, 42.721558%, 74.099731%)" offset="0.234375"/><stop stop-opacity="1" stop-color="rgb(20.41626%, 42.921448%, 74.116516%)" offset="0.25"/><stop stop-opacity="1" stop-color="rgb(20.61615%, 43.119812%, 74.316406%)" offset="0.28125"/><stop stop-opacity="1" stop-color="rgb(20.799255%, 43.319702%, 74.499512%)" offset="0.3125"/><stop stop-opacity="1" stop-color="rgb(20.799255%, 43.516541%, 74.499512%)" offset="0.328125"/><stop stop-opacity="1" stop-color="rgb(20.799255%, 43.716431%, 74.511719%)" offset="0.34375"/><stop stop-opacity="1" stop-color="rgb(20.819092%, 43.919373%, 74.711609%)" offset="0.359375"/><stop stop-opacity="1" stop-color="rgb(21.018982%, 44.119263%, 74.899292%)" offset="0.375"/><stop stop-opacity="1" stop-color="rgb(21.188354%, 44.309998%, 74.909973%)" offset="0.390625"/><stop stop-opacity="1" stop-color="rgb(21.005249%, 44.509888%, 75.109863%)" offset="0.40625"/><stop stop-opacity="1" stop-color="rgb(21.01593%, 44.711304%, 75.299072%)" offset="0.421875"/><stop stop-opacity="1" stop-color="rgb(21.199036%, 44.911194%, 75.299072%)" offset="0.4375"/><stop stop-opacity="1" stop-color="rgb(21.199036%, 45.114136%, 75.299072%)" offset="0.453125"/><stop stop-opacity="1" stop-color="rgb(21.199036%, 45.314026%, 75.309753%)" offset="0.46875"/><stop stop-opacity="1" stop-color="rgb(21.217346%, 45.516968%, 75.509644%)" offset="0.484375"/><stop stop-opacity="1" stop-color="rgb(21.403503%, 45.716858%, 75.698853%)" offset="0.5"/><stop stop-opacity="1" stop-color="rgb(21.585083%, 45.915222%, 75.714111%)" offset="0.53125"/><stop stop-opacity="1" stop-color="rgb(21.598816%, 46.121216%, 75.914001%)" offset="0.5625"/><stop stop-opacity="1" stop-color="rgb(21.612549%, 46.505737%, 76.098633%)" offset="0.578125"/><stop stop-opacity="1" stop-color="rgb(21.812439%, 46.707153%, 76.107788%)" offset="0.59375"/><stop stop-opacity="1" stop-color="rgb(21.998596%, 46.907043%, 76.307678%)" offset="0.609375"/><stop stop-opacity="1" stop-color="rgb(21.998596%, 47.109985%, 76.499939%)" offset="0.625"/><stop stop-opacity="1" stop-color="rgb(21.998596%, 47.309875%, 76.506042%)" offset="0.640625"/><stop stop-opacity="1" stop-color="rgb(21.998596%, 47.50824%, 76.705933%)" offset="0.65625"/><stop stop-opacity="1" stop-color="rgb(21.998596%, 47.662354%, 76.899719%)" offset="0.6875"/><stop stop-opacity="1" stop-color="rgb(21.998596%, 47.911072%, 76.899719%)" offset="0.695312"/><stop stop-opacity="1" stop-color="rgb(22.009277%, 48.106384%, 76.899719%)" offset="0.703125"/><stop stop-opacity="1" stop-color="rgb(22.210693%, 48.205566%, 76.905823%)" offset="0.71875"/><stop stop-opacity="1" stop-color="rgb(22.399902%, 48.405457%, 77.105713%)" offset="0.75"/><stop stop-opacity="1" stop-color="rgb(22.399902%, 48.602295%, 77.2995%)" offset="0.765625"/><stop stop-opacity="1" stop-color="rgb(22.399902%, 48.710632%, 77.2995%)" offset="0.773437"/><stop stop-opacity="1" stop-color="rgb(22.399902%, 48.905945%, 77.307129%)" offset="0.78125"/><stop stop-opacity="1" stop-color="rgb(22.40448%, 49.005127%, 77.456665%)" offset="0.796875"/><stop stop-opacity="1" stop-color="rgb(22.554016%, 49.205017%, 77.598572%)" offset="0.8125"/><stop stop-opacity="1" stop-color="rgb(22.698975%, 49.403381%, 77.598572%)" offset="0.84375"/><stop stop-opacity="1" stop-color="rgb(22.698975%, 49.603271%, 77.598572%)" offset="0.859375"/><stop stop-opacity="1" stop-color="rgb(22.698975%, 49.804688%, 77.604675%)" offset="0.875"/><stop stop-opacity="1" stop-color="rgb(22.698975%, 50.006104%, 77.806091%)" offset="0.890625"/><stop stop-opacity="1" stop-color="rgb(22.698975%, 50.20752%, 77.999878%)" offset="0.90625"/><stop stop-opacity="1" stop-color="rgb(22.698975%, 50.40741%, 78.00293%)" offset="0.921875"/><stop stop-opacity="1" stop-color="rgb(22.698975%, 50.59967%, 78.201294%)" offset="0.9375"/><stop stop-opacity="1" stop-color="rgb(22.698975%, 50.701904%, 78.398132%)" offset="0.945312"/><stop stop-opacity="1" stop-color="rgb(22.705078%, 50.901794%, 78.399658%)" offset="0.953125"/><stop stop-opacity="1" stop-color="rgb(22.904968%, 50.999451%, 78.399658%)" offset="0.96875"/><stop stop-opacity="1" stop-color="rgb(23.098755%, 51.101685%, 78.399658%)" offset="0.984375"/><stop stop-opacity="1" stop-color="rgb(23.098755%, 51.300049%, 78.399658%)" offset="1"/></linearGradient><clipPath id="id13"><path d="M 174.101562 118 L 247.867188 118 L 247.867188 204.570312 L 174.101562 204.570312 Z M 174.101562 118 " clip-rule="nonzero"/></clipPath><clipPath id="id14"><path d="M 247.640625 186.386719 C 247.382812 188.371094 246.863281 190.464844 245.960938 192.511719 C 245.046875 194.570312 243.71875 196.546875 242.097656 198.203125 C 240.488281 199.851562 238.621094 201.207031 236.742188 202.15625 C 236.265625 202.425781 235.796875 202.632812 235.316406 202.839844 L 234.601562 203.140625 L 234.25 203.285156 C 234.199219 203.304688 234.175781 203.304688 234.175781 203.316406 C 234.132812 203.335938 234.019531 203.378906 233.6875 203.492188 L 233.554688 203.535156 L 232.496094 203.863281 C 232.441406 203.886719 232.246094 203.9375 232.078125 203.96875 L 231.558594 204.09375 L 230.523438 204.300781 C 227.148438 204.859375 224.03125 204.507812 221.269531 203.730469 C 234.65625 201.226562 234.550781 185.21875 234.09375 179.671875 L 234.09375 179.628906 C 234.074219 179.371094 234.042969 179.132812 234.019531 178.925781 C 234.011719 178.820312 234 178.71875 233.988281 178.636719 C 233.980469 178.449219 233.957031 178.292969 233.9375 178.167969 C 233.90625 177.910156 233.886719 177.777344 233.886719 177.777344 C 233.53125 175.34375 232.960938 172.789062 232.226562 170.222656 C 231.5 167.644531 230.585938 165.066406 229.660156 162.417969 C 228.707031 159.707031 227.800781 157.214844 226.765625 154.699219 C 225.757812 152.203125 224.6875 149.773438 223.515625 147.433594 C 222.332031 145.09375 221.085938 142.828125 219.714844 140.6875 C 218.332031 138.511719 216.910156 136.558594 215.269531 134.582031 C 212.074219 130.773438 208.449219 127.449219 204.484375 125.402344 C 204.234375 125.277344 204.058594 125.164062 203.757812 125.027344 L 202.882812 124.644531 L 201.460938 124.128906 C 200.464844 123.847656 199.449219 123.621094 198.421875 123.558594 C 196.375 123.414062 194.289062 123.777344 192.292969 124.542969 C 188.320312 126.125 184.808594 129.054688 181.972656 132.285156 C 179.628906 134.921875 177.59375 137.808594 175.816406 140.664062 C 175.300781 140.167969 174.769531 139.671875 174.230469 139.195312 C 175.753906 136.277344 177.511719 133.308594 179.597656 130.367188 C 182.304688 126.695312 185.640625 122.96875 190.382812 120.433594 C 192.730469 119.171875 195.480469 118.292969 198.398438 118.136719 C 199.863281 118.035156 201.335938 118.15625 202.792969 118.394531 L 203.871094 118.632812 L 204.410156 118.757812 L 204.691406 118.820312 L 204.824219 118.851562 C 204.898438 118.871094 204.847656 118.839844 205.023438 118.902344 L 205.9375 119.183594 C 206.238281 119.265625 206.632812 119.421875 206.976562 119.542969 C 212.414062 121.550781 217.097656 124.976562 221.292969 128.859375 C 223.347656 130.761719 225.402344 132.957031 227.25 135.203125 C 229.109375 137.457031 230.84375 139.835938 232.441406 142.3125 C 234.050781 144.785156 235.546875 147.339844 236.9375 149.949219 C 238.308594 152.546875 239.617188 155.296875 240.820312 157.875 C 242.066406 160.523438 243.25 163.308594 244.339844 166.21875 C 245.429688 169.125 246.417969 172.1875 247.070312 175.5 C 247.714844 178.808594 248.152344 182.390625 247.640625 186.386719 Z M 247.640625 186.386719 " clip-rule="nonzero"/></clipPath><clipPath id="id15"><path d="M 247.640625 186.386719 C 247.382812 188.371094 246.863281 190.464844 245.960938 192.511719 C 245.046875 194.570312 243.71875 196.546875 242.097656 198.203125 C 240.488281 199.851562 238.621094 201.207031 236.742188 202.15625 C 236.265625 202.425781 235.796875 202.632812 235.316406 202.839844 L 234.601562 203.140625 L 234.25 203.285156 C 234.199219 203.304688 234.175781 203.304688 234.175781 203.316406 C 234.132812 203.335938 234.019531 203.378906 233.6875 203.492188 L 233.554688 203.535156 L 232.496094 203.863281 C 232.441406 203.886719 232.246094 203.9375 232.078125 203.96875 L 231.558594 204.09375 L 230.523438 204.300781 C 227.148438 204.859375 224.03125 204.507812 221.269531 203.730469 C 234.65625 201.226562 234.550781 185.21875 234.09375 179.671875 L 234.09375 179.628906 C 234.074219 179.371094 234.042969 179.132812 234.019531 178.925781 C 234.011719 178.820312 234 178.71875 233.988281 178.636719 C 233.980469 178.449219 233.957031 178.292969 233.9375 178.167969 C 233.90625 177.910156 233.886719 177.777344 233.886719 177.777344 C 233.53125 175.34375 232.960938 172.789062 232.226562 170.222656 C 231.5 167.644531 230.585938 165.066406 229.660156 162.417969 C 228.707031 159.707031 227.800781 157.214844 226.765625 154.699219 C 225.757812 152.203125 224.6875 149.773438 223.515625 147.433594 C 222.332031 145.09375 221.085938 142.828125 219.714844 140.6875 C 218.332031 138.511719 216.910156 136.558594 215.269531 134.582031 C 212.074219 130.773438 208.449219 127.449219 204.484375 125.402344 C 204.234375 125.277344 204.058594 125.164062 203.757812 125.027344 L 202.882812 124.644531 L 201.460938 124.128906 C 200.464844 123.847656 199.449219 123.621094 198.421875 123.558594 C 196.375 123.414062 194.289062 123.777344 192.292969 124.542969 C 188.320312 126.125 184.808594 129.054688 181.972656 132.285156 C 179.628906 134.921875 177.59375 137.808594 175.816406 140.664062 C 175.300781 140.167969 174.769531 139.671875 174.230469 139.195312 C 175.753906 136.277344 177.511719 133.308594 179.597656 130.367188 C 182.304688 126.695312 185.640625 122.96875 190.382812 120.433594 C 192.730469 119.171875 195.480469 118.292969 198.398438 118.136719 C 199.863281 118.035156 201.335938 118.15625 202.792969 118.394531 L 203.871094 118.632812 L 204.410156 118.757812 L 204.691406 118.820312 L 204.824219 118.851562 C 204.898438 118.871094 204.847656 118.839844 205.023438 118.902344 L 205.9375 119.183594 C 206.238281 119.265625 206.632812 119.421875 206.976562 119.542969 C 212.414062 121.550781 217.097656 124.976562 221.292969 128.859375 C 223.347656 130.761719 225.402344 132.957031 227.25 135.203125 C 229.109375 137.457031 230.84375 139.835938 232.441406 142.3125 C 234.050781 144.785156 235.546875 147.339844 236.9375 149.949219 C 238.308594 152.546875 239.617188 155.296875 240.820312 157.875 C 242.066406 160.523438 243.25 163.308594 244.339844 166.21875 C 245.429688 169.125 246.417969 172.1875 247.070312 175.5 C 247.714844 178.808594 248.152344 182.390625 247.640625 186.386719 " clip-rule="nonzero"/></clipPath><clipPath id="id16"><path d="M 214.640625 81.351562 L 130.863281 157.394531 L 207.742188 241.539062 L 291.515625 165.496094 Z M 214.640625 81.351562 " clip-rule="nonzero"/></clipPath><linearGradient x1="0.0390597" gradientTransform="matrix(111.090428, 121.596593, -121.992665, 110.729756, 171.58682, 111.743587)" y1="0" x2="0.728603" gradientUnits="userSpaceOnUse" y2="0" xlink:type="simple" xlink:actuate="onLoad" id="id17" xlink:show="other"><stop stop-opacity="1" stop-color="rgb(19.207764%, 36.898804%, 70.599365%)" offset="0"/><stop stop-opacity="1" stop-color="rgb(19.403076%, 37.09259%, 70.599365%)" offset="0.00390625"/><stop stop-opacity="1" stop-color="rgb(19.599915%, 37.286377%, 70.599365%)" offset="0.0078125"/><stop stop-opacity="1" stop-color="rgb(19.599915%, 37.29248%, 70.599365%)" offset="0.015625"/><stop stop-opacity="1" stop-color="rgb(19.599915%, 37.315369%, 70.799255%)" offset="0.0195312"/><stop stop-opacity="1" stop-color="rgb(19.599915%, 37.332153%, 70.999146%)" offset="0.0234375"/><stop stop-opacity="1" stop-color="rgb(19.599915%, 37.477112%, 70.999146%)" offset="0.03125"/><stop stop-opacity="1" stop-color="rgb(19.599915%, 37.809753%, 71.199036%)" offset="0.0351562"/><stop stop-opacity="1" stop-color="rgb(19.599915%, 37.998962%, 71.398926%)" offset="0.0390625"/><stop stop-opacity="1" stop-color="rgb(19.599915%, 38.188171%, 71.398926%)" offset="0.046875"/><stop stop-opacity="1" stop-color="rgb(19.599915%, 38.568115%, 71.577454%)" offset="0.0546875"/><stop stop-opacity="1" stop-color="rgb(19.599915%, 38.777161%, 71.777344%)" offset="0.0625"/><stop stop-opacity="1" stop-color="rgb(19.599915%, 38.998413%, 71.998596%)" offset="0.0664062"/><stop stop-opacity="1" stop-color="rgb(19.599915%, 39.199829%, 72.198486%)" offset="0.0703125"/><stop stop-opacity="1" stop-color="rgb(19.795227%, 39.395142%, 72.198486%)" offset="0.0742188"/><stop stop-opacity="1" stop-color="rgb(19.992065%, 39.59198%, 72.198486%)" offset="0.078125"/><stop stop-opacity="1" stop-color="rgb(19.995117%, 39.595032%, 72.198486%)" offset="0.0859375"/><stop stop-opacity="1" stop-color="rgb(19.999695%, 39.7995%, 72.329712%)" offset="0.0898438"/><stop stop-opacity="1" stop-color="rgb(19.999695%, 39.99939%, 72.462463%)" offset="0.09375"/><stop stop-opacity="1" stop-color="rgb(19.999695%, 40.19928%, 72.480774%)" offset="0.0976562"/><stop stop-opacity="1" stop-color="rgb(19.999695%, 40.39917%, 72.499084%)" offset="0.101562"/><stop stop-opacity="1" stop-color="rgb(19.999695%, 40.59906%, 72.698975%)" offset="0.105469"/><stop stop-opacity="1" stop-color="rgb(19.999695%, 40.79895%, 72.898865%)" offset="0.109375"/><stop stop-opacity="1" stop-color="rgb(20.191956%, 40.79895%, 72.898865%)" offset="0.117188"/><stop stop-opacity="1" stop-color="rgb(20.391846%, 40.99884%, 73.098755%)" offset="0.121094"/><stop stop-opacity="1" stop-color="rgb(20.399475%, 41.19873%, 73.298645%)" offset="0.125"/><stop stop-opacity="1" stop-color="rgb(20.399475%, 41.398621%, 73.298645%)" offset="0.128906"/><stop stop-opacity="1" stop-color="rgb(20.399475%, 41.598511%, 73.298645%)" offset="0.132812"/><stop stop-opacity="1" stop-color="rgb(20.399475%, 41.758728%, 73.498535%)" offset="0.136719"/><stop stop-opacity="1" stop-color="rgb(20.399475%, 41.920471%, 73.699951%)" offset="0.140625"/><stop stop-opacity="1" stop-color="rgb(20.399475%, 41.960144%, 73.699951%)" offset="0.148437"/><stop stop-opacity="1" stop-color="rgb(20.399475%, 42.199707%, 73.699951%)" offset="0.152344"/><stop stop-opacity="1" stop-color="rgb(20.399475%, 42.399597%, 73.699951%)" offset="0.15625"/><stop stop-opacity="1" stop-color="rgb(20.399475%, 42.549133%, 73.899841%)" offset="0.160156"/><stop stop-opacity="1" stop-color="rgb(20.399475%, 42.698669%, 74.099731%)" offset="0.164062"/><stop stop-opacity="1" stop-color="rgb(20.399475%, 42.866516%, 74.099731%)" offset="0.171875"/><stop stop-opacity="1" stop-color="rgb(20.578003%, 43.066406%, 74.278259%)" offset="0.179687"/><stop stop-opacity="1" stop-color="rgb(20.777893%, 43.2724%, 74.478149%)" offset="0.1875"/><stop stop-opacity="1" stop-color="rgb(20.799255%, 43.47229%, 74.499512%)" offset="0.195312"/><stop stop-opacity="1" stop-color="rgb(20.799255%, 43.699646%, 74.499512%)" offset="0.199219"/><stop stop-opacity="1" stop-color="rgb(20.799255%, 43.899536%, 74.499512%)" offset="0.203125"/><stop stop-opacity="1" stop-color="rgb(20.962524%, 44.099426%, 74.699402%)" offset="0.207031"/><stop stop-opacity="1" stop-color="rgb(21.127319%, 44.299316%, 74.899292%)" offset="0.210938"/><stop stop-opacity="1" stop-color="rgb(21.009827%, 44.451904%, 74.899292%)" offset="0.21875"/><stop stop-opacity="1" stop-color="rgb(21.046448%, 44.793701%, 75.099182%)" offset="0.222656"/><stop stop-opacity="1" stop-color="rgb(21.199036%, 44.984436%, 75.299072%)" offset="0.226562"/><stop stop-opacity="1" stop-color="rgb(21.199036%, 45.040894%, 75.299072%)" offset="0.234375"/><stop stop-opacity="1" stop-color="rgb(21.199036%, 45.298767%, 75.299072%)" offset="0.238281"/><stop stop-opacity="1" stop-color="rgb(21.199036%, 45.498657%, 75.299072%)" offset="0.242187"/><stop stop-opacity="1" stop-color="rgb(21.199036%, 45.498657%, 75.479126%)" offset="0.25"/><stop stop-opacity="1" stop-color="rgb(21.199036%, 45.672607%, 75.679016%)" offset="0.257812"/><stop stop-opacity="1" stop-color="rgb(21.398926%, 46.073914%, 75.837708%)" offset="0.261719"/><stop stop-opacity="1" stop-color="rgb(21.598816%, 46.299744%, 75.976562%)" offset="0.265625"/><stop stop-opacity="1" stop-color="rgb(21.598816%, 46.469116%, 76.037598%)" offset="0.273438"/><stop stop-opacity="1" stop-color="rgb(21.765137%, 46.836853%, 76.264954%)" offset="0.277344"/><stop stop-opacity="1" stop-color="rgb(21.932983%, 47.033691%, 76.4328%)" offset="0.28125"/><stop stop-opacity="1" stop-color="rgb(21.965027%, 47.065735%, 76.46637%)" offset="0.289062"/><stop stop-opacity="1" stop-color="rgb(21.998596%, 47.299194%, 76.644897%)" offset="0.292969"/><stop stop-opacity="1" stop-color="rgb(21.998596%, 47.499084%, 76.789856%)" offset="0.296875"/><stop stop-opacity="1" stop-color="rgb(21.998596%, 47.648621%, 76.844788%)" offset="0.304688"/><stop stop-opacity="1" stop-color="rgb(21.998596%, 47.923279%, 76.899719%)" offset="0.3125"/><stop stop-opacity="1" stop-color="rgb(22.177124%, 48.123169%, 76.899719%)" offset="0.320312"/><stop stop-opacity="1" stop-color="rgb(22.37854%, 48.374939%, 77.075195%)" offset="0.328125"/><stop stop-opacity="1" stop-color="rgb(22.399902%, 48.716736%, 77.275085%)" offset="0.335938"/><stop stop-opacity="1" stop-color="rgb(22.399902%, 48.94104%, 77.449036%)" offset="0.34375"/><stop stop-opacity="1" stop-color="rgb(22.489929%, 49.198914%, 77.598572%)" offset="0.347656"/><stop stop-opacity="1" stop-color="rgb(22.579956%, 49.398804%, 77.598572%)" offset="0.351562"/><stop stop-opacity="1" stop-color="rgb(22.639465%, 49.398804%, 77.598572%)" offset="0.359375"/><stop stop-opacity="1" stop-color="rgb(22.698975%, 49.598694%, 77.598572%)" offset="0.363281"/><stop stop-opacity="1" stop-color="rgb(22.698975%, 49.798584%, 77.598572%)" offset="0.367188"/><stop stop-opacity="1" stop-color="rgb(22.698975%, 49.998474%, 77.798462%)" offset="0.371094"/><stop stop-opacity="1" stop-color="rgb(22.698975%, 50.19989%, 77.999878%)" offset="0.375"/><stop stop-opacity="1" stop-color="rgb(22.698975%, 50.39978%, 77.999878%)" offset="0.378906"/><stop stop-opacity="1" stop-color="rgb(22.698975%, 50.59967%, 77.999878%)" offset="0.382812"/><stop stop-opacity="1" stop-color="rgb(22.698975%, 50.715637%, 78.199768%)" offset="0.386719"/><stop stop-opacity="1" stop-color="rgb(22.698975%, 50.831604%, 78.399658%)" offset="0.390625"/><stop stop-opacity="1" stop-color="rgb(22.839355%, 50.915527%, 78.399658%)" offset="0.398438"/><stop stop-opacity="1" stop-color="rgb(23.039246%, 51.171875%, 78.399658%)" offset="0.40625"/><stop stop-opacity="1" stop-color="rgb(23.098755%, 51.506042%, 78.53241%)" offset="0.414062"/><stop stop-opacity="1" stop-color="rgb(23.098755%, 51.733398%, 78.7323%)" offset="0.421875"/><stop stop-opacity="1" stop-color="rgb(23.21167%, 51.998901%, 78.910828%)" offset="0.425781"/><stop stop-opacity="1" stop-color="rgb(23.324585%, 52.198792%, 79.023743%)" offset="0.429688"/><stop stop-opacity="1" stop-color="rgb(23.41156%, 52.311707%, 79.110718%)" offset="0.4375"/><stop stop-opacity="1" stop-color="rgb(23.498535%, 52.462769%, 79.199219%)" offset="0.445312"/><stop stop-opacity="1" stop-color="rgb(23.498535%, 52.69928%, 79.199219%)" offset="0.449219"/><stop stop-opacity="1" stop-color="rgb(23.498535%, 52.89917%, 79.199219%)" offset="0.453125"/><stop stop-opacity="1" stop-color="rgb(23.617554%, 53.09906%, 79.318237%)" offset="0.457031"/><stop stop-opacity="1" stop-color="rgb(23.738098%, 53.29895%, 79.437256%)" offset="0.460938"/><stop stop-opacity="1" stop-color="rgb(23.81897%, 53.49884%, 79.518127%)" offset="0.464844"/><stop stop-opacity="1" stop-color="rgb(23.899841%, 53.69873%, 79.598999%)" offset="0.46875"/><stop stop-opacity="1" stop-color="rgb(23.899841%, 53.796387%, 79.696655%)" offset="0.476562"/><stop stop-opacity="1" stop-color="rgb(23.899841%, 53.996277%, 79.896545%)" offset="0.484375"/><stop stop-opacity="1" stop-color="rgb(23.899841%, 54.26178%, 79.998779%)" offset="0.492187"/><stop stop-opacity="1" stop-color="rgb(23.899841%, 54.577637%, 79.998779%)" offset="0.5"/><stop stop-opacity="1" stop-color="rgb(23.899841%, 54.919434%, 80.104065%)" offset="0.507812"/><stop stop-opacity="1" stop-color="rgb(24.099731%, 55.203247%, 80.303955%)" offset="0.511719"/><stop stop-opacity="1" stop-color="rgb(24.299622%, 55.299377%, 80.39856%)" offset="0.515625"/><stop stop-opacity="1" stop-color="rgb(24.188232%, 55.499268%, 80.509949%)" offset="0.519531"/><stop stop-opacity="1" stop-color="rgb(24.076843%, 55.699158%, 80.621338%)" offset="0.523438"/><stop stop-opacity="1" stop-color="rgb(24.14856%, 55.699158%, 80.709839%)" offset="0.53125"/><stop stop-opacity="1" stop-color="rgb(24.259949%, 55.899048%, 80.799866%)" offset="0.535156"/><stop stop-opacity="1" stop-color="rgb(24.299622%, 56.098938%, 80.799866%)" offset="0.539062"/><stop stop-opacity="1" stop-color="rgb(24.299622%, 56.298828%, 80.999756%)" offset="0.542969"/><stop stop-opacity="1" stop-color="rgb(24.299622%, 56.498718%, 81.199646%)" offset="0.546875"/><stop stop-opacity="1" stop-color="rgb(24.299622%, 56.698608%, 81.199646%)" offset="0.550781"/><stop stop-opacity="1" stop-color="rgb(24.299622%, 56.898499%, 81.199646%)" offset="0.554688"/><stop stop-opacity="1" stop-color="rgb(24.438477%, 56.898499%, 81.338501%)" offset="0.5625"/><stop stop-opacity="1" stop-color="rgb(24.638367%, 57.052612%, 81.538391%)" offset="0.570312"/><stop stop-opacity="1" stop-color="rgb(24.699402%, 57.402039%, 81.706238%)" offset="0.574219"/><stop stop-opacity="1" stop-color="rgb(24.699402%, 57.598877%, 81.814575%)" offset="0.578125"/><stop stop-opacity="1" stop-color="rgb(24.699402%, 57.798767%, 81.906128%)" offset="0.582031"/><stop stop-opacity="1" stop-color="rgb(24.699402%, 57.998657%, 81.999207%)" offset="0.585938"/><stop stop-opacity="1" stop-color="rgb(24.899292%, 58.085632%, 81.999207%)" offset="0.589844"/><stop stop-opacity="1" stop-color="rgb(25.099182%, 58.172607%, 81.999207%)" offset="0.59375"/><stop stop-opacity="1" stop-color="rgb(25.099182%, 58.285522%, 81.999207%)" offset="0.601562"/><stop stop-opacity="1" stop-color="rgb(25.099182%, 58.599854%, 82.113647%)" offset="0.605469"/><stop stop-opacity="1" stop-color="rgb(25.099182%, 58.799744%, 82.229614%)" offset="0.609375"/><stop stop-opacity="1" stop-color="rgb(25.099182%, 58.903503%, 82.313538%)" offset="0.617188"/><stop stop-opacity="1" stop-color="rgb(25.245667%, 59.103394%, 82.398987%)" offset="0.625"/><stop stop-opacity="1" stop-color="rgb(25.445557%, 59.399414%, 82.548523%)" offset="0.628906"/><stop stop-opacity="1" stop-color="rgb(25.498962%, 59.599304%, 82.699585%)" offset="0.632812"/><stop stop-opacity="1" stop-color="rgb(25.498962%, 59.671021%, 82.699585%)" offset="0.640625"/><stop stop-opacity="1" stop-color="rgb(25.579834%, 59.951782%, 82.899475%)" offset="0.644531"/><stop stop-opacity="1" stop-color="rgb(25.662231%, 60.162354%, 83.099365%)" offset="0.648438"/><stop stop-opacity="1" stop-color="rgb(25.779724%, 60.279846%, 83.099365%)" offset="0.65625"/><stop stop-opacity="1" stop-color="rgb(25.898743%, 60.543823%, 83.099365%)" offset="0.664062"/><stop stop-opacity="1" stop-color="rgb(25.898743%, 60.823059%, 83.299255%)" offset="0.667969"/><stop stop-opacity="1" stop-color="rgb(25.898743%, 60.957336%, 83.499146%)" offset="0.671875"/><stop stop-opacity="1" stop-color="rgb(25.898743%, 61.077881%, 83.499146%)" offset="0.679688"/><stop stop-opacity="1" stop-color="rgb(25.898743%, 61.328125%, 83.499146%)" offset="0.6875"/><stop stop-opacity="1" stop-color="rgb(26.098633%, 61.528015%, 83.299255%)" offset="0.691406"/><stop stop-opacity="1" stop-color="rgb(26.298523%, 61.599731%, 83.099365%)" offset="0.695312"/><stop stop-opacity="1" stop-color="rgb(26.298523%, 61.799622%, 83.013916%)" offset="0.699219"/><stop stop-opacity="1" stop-color="rgb(26.298523%, 61.999512%, 82.928467%)" offset="0.703125"/><stop stop-opacity="1" stop-color="rgb(26.298523%, 61.999512%, 82.814026%)" offset="0.71875"/><stop stop-opacity="1" stop-color="rgb(26.298523%, 62.199402%, 82.548523%)" offset="0.722656"/><stop stop-opacity="1" stop-color="rgb(26.298523%, 62.399292%, 82.398987%)" offset="0.726562"/><stop stop-opacity="1" stop-color="rgb(26.298523%, 62.467957%, 82.398987%)" offset="0.734375"/><stop stop-opacity="1" stop-color="rgb(26.298523%, 62.69989%, 82.398987%)" offset="0.742188"/><stop stop-opacity="1" stop-color="rgb(26.298523%, 62.980652%, 82.398987%)" offset="0.75"/><stop stop-opacity="1" stop-color="rgb(26.298523%, 63.223267%, 82.273865%)" offset="0.765625"/><stop stop-opacity="1" stop-color="rgb(26.298523%, 63.423157%, 82.073975%)" offset="0.773438"/><stop stop-opacity="1" stop-color="rgb(26.437378%, 63.638306%, 81.999207%)" offset="0.78125"/><stop stop-opacity="1" stop-color="rgb(26.638794%, 63.838196%, 81.999207%)" offset="0.789062"/><stop stop-opacity="1" stop-color="rgb(26.699829%, 64.099121%, 81.999207%)" offset="0.792969"/><stop stop-opacity="1" stop-color="rgb(26.699829%, 64.299011%, 81.999207%)" offset="0.796875"/><stop stop-opacity="1" stop-color="rgb(26.699829%, 64.498901%, 81.95343%)" offset="0.800781"/><stop stop-opacity="1" stop-color="rgb(26.699829%, 64.698792%, 81.907654%)" offset="0.804688"/><stop stop-opacity="1" stop-color="rgb(26.899719%, 64.698792%, 81.75354%)" offset="0.808594"/><stop stop-opacity="1" stop-color="rgb(27.099609%, 64.698792%, 81.599426%)" offset="0.8125"/><stop stop-opacity="1" stop-color="rgb(27.099609%, 64.826965%, 81.599426%)" offset="0.820312"/><stop stop-opacity="1" stop-color="rgb(27.099609%, 65.026855%, 81.599426%)" offset="0.828125"/><stop stop-opacity="1" stop-color="rgb(27.099609%, 65.22522%, 81.472778%)" offset="0.835938"/><stop stop-opacity="1" stop-color="rgb(27.220154%, 65.42511%, 81.272888%)" offset="0.84375"/><stop stop-opacity="1" stop-color="rgb(27.420044%, 65.699768%, 81.167603%)" offset="0.847656"/><stop stop-opacity="1" stop-color="rgb(27.49939%, 65.899658%, 81.137085%)" offset="0.851562"/><stop stop-opacity="1" stop-color="rgb(27.49939%, 65.899658%, 80.967712%)" offset="0.859375"/><stop stop-opacity="1" stop-color="rgb(27.49939%, 65.899658%, 80.799866%)" offset="0.867188"/><stop stop-opacity="1" stop-color="rgb(27.49939%, 66.148376%, 80.799866%)" offset="0.871094"/><stop stop-opacity="1" stop-color="rgb(27.49939%, 66.397095%, 80.799866%)" offset="0.875"/><stop stop-opacity="1" stop-color="rgb(27.49939%, 66.548157%, 80.685425%)" offset="0.890625"/><stop stop-opacity="1" stop-color="rgb(27.592468%, 66.822815%, 80.485535%)" offset="0.898438"/><stop stop-opacity="1" stop-color="rgb(27.798462%, 67.077637%, 80.39856%)" offset="0.90625"/><stop stop-opacity="1" stop-color="rgb(28.05481%, 67.353821%, 80.198669%)" offset="0.910156"/><stop stop-opacity="1" stop-color="rgb(28.199768%, 67.498779%, 79.998779%)" offset="0.914062"/><stop stop-opacity="1" stop-color="rgb(28.199768%, 67.498779%, 79.998779%)" offset="0.921875"/><stop stop-opacity="1" stop-color="rgb(28.305054%, 67.648315%, 79.891968%)" offset="0.9375"/><stop stop-opacity="1" stop-color="rgb(28.504944%, 67.913818%, 79.692078%)" offset="0.945312"/><stop stop-opacity="1" stop-color="rgb(28.599548%, 68.113708%, 79.598999%)" offset="0.953125"/><stop stop-opacity="1" stop-color="rgb(28.599548%, 68.313599%, 79.598999%)" offset="0.960938"/><stop stop-opacity="1" stop-color="rgb(28.599548%, 68.533325%, 79.399109%)" offset="0.964844"/><stop stop-opacity="1" stop-color="rgb(28.599548%, 68.638611%, 79.199219%)" offset="0.96875"/><stop stop-opacity="1" stop-color="rgb(28.703308%, 68.818665%, 79.199219%)" offset="0.976562"/><stop stop-opacity="1" stop-color="rgb(28.903198%, 68.998718%, 79.084778%)" offset="0.984375"/><stop stop-opacity="1" stop-color="rgb(29.118347%, 69.117737%, 78.884888%)" offset="0.992188"/><stop stop-opacity="1" stop-color="rgb(29.318237%, 69.430542%, 78.799438%)" offset="1"/></linearGradient><clipPath id="id18"><path d="M 220 203 L 222 203 L 222 204.570312 L 220 204.570312 Z M 220 203 " clip-rule="nonzero"/></clipPath><clipPath id="id19"><path d="M 156 103.320312 L 175 103.320312 L 175 121 L 156 121 Z M 156 103.320312 " clip-rule="nonzero"/></clipPath></defs><rect x="-37.5" width="450" fill="rgb(100%, 100%, 100%)" y="-37.499999" height="449.999989" fill-opacity="1"/><rect x="-37.5" width="450" fill="rgb(100%, 100%, 100%)" y="-37.499999" height="449.999989" fill-opacity="1"/><rect x="-37.5" width="450" fill="rgb(100%, 100%, 100%)" y="-37.499999" height="449.999989" fill-opacity="1"/><rect x="-37.5" width="450" fill="rgb(100%, 100%, 100%)" y="-37.499999" height="449.999989" fill-opacity="1"/><g clip-path="url(#id3)"><g clip-path="url(#id4)"><g clip-path="url(#id5)"><g clip-path="url(#id6)"><path fill="url(#id7)" d="M 158.765625 77.945312 L 92.066406 181.0625 L 202.941406 252.3125 L 269.640625 149.199219 Z M 158.765625 77.945312 " fill-rule="nonzero"/></g></g></g></g><g clip-path="url(#id8)"><g clip-path="url(#id9)"><g clip-path="url(#id10)"><g clip-path="url(#id11)"><path fill="url(#id12)" d="M 163.871094 141.964844 L 138.320312 165.15625 L 162.503906 191.625 L 188.054688 168.4375 Z M 163.871094 141.964844 " fill-rule="nonzero"/></g></g></g></g><g clip-path="url(#id13)"><g clip-path="url(#id14)"><g clip-path="url(#id15)"><g clip-path="url(#id16)"><path fill="url(#id17)" d="M 214.484375 81.496094 L 131.007812 157.261719 L 207.609375 241.109375 L 291.085938 165.339844 Z M 214.484375 81.496094 " fill-rule="nonzero"/></g></g></g></g><g clip-path="url(#id18)"><path stroke-linecap="butt" transform="matrix(0.0241053, 0, 0, -0.0240271, 67.075474, 274.081388)" fill="none" stroke-linejoin="miter" d="M 6396.683023 2927.988054 L 6396.358925 2927.988054 " stroke="rgb(93.728638%, 18.818665%, 12.939453%)" stroke-width="30.101999" stroke-opacity="1" stroke-miterlimit="10"/></g><g clip-path="url(#id19)"><path fill="rgb(13.729858%, 23.919678%, 100%)" d="M 174.230469 112.089844 C 174.230469 116.933594 170.289062 120.859375 165.429688 120.859375 C 160.570312 120.859375 156.632812 116.933594 156.632812 112.089844 C 156.632812 107.246094 160.570312 103.320312 165.429688 103.320312 C 170.289062 103.320312 174.230469 107.246094 174.230469 112.089844 " fill-opacity="1" fill-rule="nonzero"/></g><g fill="rgb(0.389099%, 10.978699%, 26.269531%)" fill-opacity="1"><g transform="translate(104.915403, 246.428861)"><g><path d="M 15.890625 -4.703125 L 5.734375 -4.703125 L 3.734375 0 L -0.140625 0 L 8.984375 -20.296875 L 12.703125 -20.296875 L 21.859375 0 L 17.921875 0 Z M 14.640625 -7.65625 L 10.8125 -16.53125 L 7.015625 -7.65625 Z M 14.640625 -7.65625 "/></g></g></g><g fill="rgb(0.389099%, 10.978699%, 26.269531%)" fill-opacity="1"><g transform="translate(127.703544, 246.428861)"><g><path d="M 16.59375 -10.375 L 20.15625 -10.375 L 20.15625 -2.296875 C 19.113281 -1.460938 17.894531 -0.820312 16.5 -0.375 C 15.101562 0.0703125 13.671875 0.296875 12.203125 0.296875 C 10.140625 0.296875 8.273438 -0.148438 6.609375 -1.046875 C 4.953125 -1.953125 3.648438 -3.195312 2.703125 -4.78125 C 1.753906 -6.363281 1.28125 -8.15625 1.28125 -10.15625 C 1.28125 -12.144531 1.753906 -13.929688 2.703125 -15.515625 C 3.648438 -17.097656 4.957031 -18.335938 6.625 -19.234375 C 8.300781 -20.140625 10.179688 -20.59375 12.265625 -20.59375 C 13.960938 -20.59375 15.507812 -20.3125 16.90625 -19.75 C 18.300781 -19.1875 19.472656 -18.363281 20.421875 -17.28125 L 18.03125 -14.96875 C 16.488281 -16.507812 14.625 -17.28125 12.4375 -17.28125 C 11.007812 -17.28125 9.738281 -16.976562 8.625 -16.375 C 7.507812 -15.78125 6.640625 -14.941406 6.015625 -13.859375 C 5.390625 -12.773438 5.078125 -11.539062 5.078125 -10.15625 C 5.078125 -8.800781 5.390625 -7.582031 6.015625 -6.5 C 6.640625 -5.414062 7.507812 -4.5625 8.625 -3.9375 C 9.738281 -3.320312 11 -3.015625 12.40625 -3.015625 C 14 -3.015625 15.394531 -3.363281 16.59375 -4.0625 Z M 16.59375 -10.375 "/></g></g></g><g fill="rgb(0.389099%, 10.978699%, 26.269531%)" fill-opacity="1"><g transform="translate(151.158509, 246.428861)"><g><path d="M 11.453125 0.296875 C 8.648438 0.296875 6.460938 -0.488281 4.890625 -2.0625 C 3.328125 -3.644531 2.546875 -5.90625 2.546875 -8.84375 L 2.546875 -20.296875 L 6.328125 -20.296875 L 6.328125 -8.984375 C 6.328125 -5.003906 8.046875 -3.015625 11.484375 -3.015625 C 14.898438 -3.015625 16.609375 -5.003906 16.609375 -8.984375 L 16.609375 -20.296875 L 20.328125 -20.296875 L 20.328125 -8.84375 C 20.328125 -5.90625 19.546875 -3.644531 17.984375 -2.0625 C 16.429688 -0.488281 14.253906 0.296875 11.453125 0.296875 Z M 11.453125 0.296875 "/></g></g></g><g fill="rgb(0.389099%, 10.978699%, 26.269531%)" fill-opacity="1"><g transform="translate(175.10634, 246.428861)"><g><path d="M 2.71875 -20.296875 L 6.5 -20.296875 L 6.5 0 L 2.71875 0 Z M 2.71875 -20.296875 "/></g></g></g><g fill="rgb(0.389099%, 10.978699%, 26.269531%)" fill-opacity="1"><g transform="translate(185.427846, 246.428861)"><g><path d="M 6.84375 -17.109375 L 0.109375 -17.109375 L 0.109375 -20.296875 L 17.34375 -20.296875 L 17.34375 -17.109375 L 10.609375 -17.109375 L 10.609375 0 L 6.84375 0 Z M 6.84375 -17.109375 "/></g></g></g><g fill="rgb(0.389099%, 10.978699%, 26.269531%)" fill-opacity="1"><g transform="translate(203.954135, 246.428861)"><g><path d="M 17.953125 -3.15625 L 17.953125 0 L 2.71875 0 L 2.71875 -20.296875 L 17.546875 -20.296875 L 17.546875 -17.140625 L 6.5 -17.140625 L 6.5 -11.859375 L 16.296875 -11.859375 L 16.296875 -8.765625 L 6.5 -8.765625 L 6.5 -3.15625 Z M 17.953125 -3.15625 "/></g></g></g><g fill="rgb(0.389099%, 10.978699%, 26.269531%)" fill-opacity="1"><g transform="translate(224.451887, 246.428861)"><g><path d="M 12.125 0.296875 C 10.070312 0.296875 8.21875 -0.148438 6.5625 -1.046875 C 4.914062 -1.953125 3.625 -3.195312 2.6875 -4.78125 C 1.75 -6.363281 1.28125 -8.15625 1.28125 -10.15625 C 1.28125 -12.144531 1.753906 -13.929688 2.703125 -15.515625 C 3.648438 -17.097656 4.945312 -18.335938 6.59375 -19.234375 C 8.25 -20.140625 10.101562 -20.59375 12.15625 -20.59375 C 13.8125 -20.59375 15.328125 -20.300781 16.703125 -19.71875 C 18.078125 -19.132812 19.238281 -18.296875 20.1875 -17.203125 L 17.75 -14.90625 C 16.28125 -16.488281 14.472656 -17.28125 12.328125 -17.28125 C 10.929688 -17.28125 9.679688 -16.972656 8.578125 -16.359375 C 7.484375 -15.753906 6.625 -14.910156 6 -13.828125 C 5.382812 -12.742188 5.078125 -11.519531 5.078125 -10.15625 C 5.078125 -8.78125 5.382812 -7.550781 6 -6.46875 C 6.625 -5.382812 7.484375 -4.535156 8.578125 -3.921875 C 9.679688 -3.316406 10.929688 -3.015625 12.328125 -3.015625 C 14.472656 -3.015625 16.28125 -3.816406 17.75 -5.421875 L 20.1875 -3.109375 C 19.238281 -2.003906 18.070312 -1.160156 16.6875 -0.578125 C 15.300781 0.00390625 13.78125 0.296875 12.125 0.296875 Z M 12.125 0.296875 "/></g></g></g><g fill="rgb(0.389099%, 10.978699%, 26.269531%)" fill-opacity="1"><g transform="translate(246.6022, 246.428861)"><g><path d="M 20.765625 -20.296875 L 20.765625 0 L 17 0 L 17 -8.703125 L 6.5 -8.703125 L 6.5 0 L 2.71875 0 L 2.71875 -20.296875 L 6.5 -20.296875 L 6.5 -11.921875 L 17 -11.921875 L 17 -20.296875 Z M 20.765625 -20.296875 "/></g></g></g><g fill="rgb(0.389099%, 10.978699%, 26.269531%)" fill-opacity="1"><g transform="translate(120.648856, 268.47886)"><g><path d="M 3.25 -8.265625 L 0.046875 -8.265625 L 0.046875 -9.09375 L 7.40625 -9.09375 L 7.40625 -8.265625 L 4.21875 -8.265625 L 4.21875 0 L 3.25 0 Z M 3.25 -8.265625 "/></g></g></g><g fill="rgb(0.389099%, 10.978699%, 26.269531%)" fill-opacity="1"><g transform="translate(132.476614, 268.47886)"><g><path d="M 7.921875 -0.828125 L 7.921875 0 L 1.484375 0 L 1.484375 -9.09375 L 7.71875 -9.09375 L 7.71875 -8.265625 L 2.4375 -8.265625 L 2.4375 -5.03125 L 7.15625 -5.03125 L 7.15625 -4.21875 L 2.4375 -4.21875 L 2.4375 -0.828125 Z M 7.921875 -0.828125 "/></g></g></g><g fill="rgb(0.389099%, 10.978699%, 26.269531%)" fill-opacity="1"><g transform="translate(145.538996, 268.47886)"><g><path d="M 5.4375 0.078125 C 4.53125 0.078125 3.710938 -0.117188 2.984375 -0.515625 C 2.265625 -0.921875 1.695312 -1.472656 1.28125 -2.171875 C 0.875 -2.878906 0.671875 -3.671875 0.671875 -4.546875 C 0.671875 -5.421875 0.875 -6.210938 1.28125 -6.921875 C 1.695312 -7.628906 2.269531 -8.179688 3 -8.578125 C 3.726562 -8.972656 4.546875 -9.171875 5.453125 -9.171875 C 6.128906 -9.171875 6.75 -9.054688 7.3125 -8.828125 C 7.882812 -8.609375 8.375 -8.285156 8.78125 -7.859375 L 8.15625 -7.234375 C 7.445312 -7.953125 6.550781 -8.3125 5.46875 -8.3125 C 4.75 -8.3125 4.09375 -8.144531 3.5 -7.8125 C 2.914062 -7.488281 2.457031 -7.039062 2.125 -6.46875 C 1.789062 -5.894531 1.625 -5.253906 1.625 -4.546875 C 1.625 -3.835938 1.789062 -3.195312 2.125 -2.625 C 2.457031 -2.050781 2.914062 -1.597656 3.5 -1.265625 C 4.09375 -0.941406 4.75 -0.78125 5.46875 -0.78125 C 6.5625 -0.78125 7.457031 -1.144531 8.15625 -1.875 L 8.78125 -1.265625 C 8.375 -0.828125 7.882812 -0.492188 7.3125 -0.265625 C 6.738281 -0.0351562 6.113281 0.078125 5.4375 0.078125 Z M 5.4375 0.078125 "/></g></g></g><g fill="rgb(0.389099%, 10.978699%, 26.269531%)" fill-opacity="1"><g transform="translate(159.251171, 268.47886)"><g><path d="M 9.09375 -9.09375 L 9.09375 0 L 8.140625 0 L 8.140625 -4.203125 L 2.4375 -4.203125 L 2.4375 0 L 1.484375 0 L 1.484375 -9.09375 L 2.4375 -9.09375 L 2.4375 -5.046875 L 8.140625 -5.046875 L 8.140625 -9.09375 Z M 9.09375 -9.09375 "/></g></g></g><g fill="rgb(0.389099%, 10.978699%, 26.269531%)" fill-opacity="1"><g transform="translate(174.184972, 268.47886)"><g><path d="M 9.09375 -9.09375 L 9.09375 0 L 8.296875 0 L 2.4375 -7.390625 L 2.4375 0 L 1.484375 0 L 1.484375 -9.09375 L 2.28125 -9.09375 L 8.140625 -1.71875 L 8.140625 -9.09375 Z M 9.09375 -9.09375 "/></g></g></g><g fill="rgb(0.389099%, 10.978699%, 26.269531%)" fill-opacity="1"><g transform="translate(189.118773, 268.47886)"><g><path d="M 5.453125 0.078125 C 4.554688 0.078125 3.738281 -0.117188 3 -0.515625 C 2.269531 -0.921875 1.695312 -1.472656 1.28125 -2.171875 C 0.875 -2.878906 0.671875 -3.671875 0.671875 -4.546875 C 0.671875 -5.421875 0.875 -6.207031 1.28125 -6.90625 C 1.695312 -7.613281 2.269531 -8.164062 3 -8.5625 C 3.738281 -8.96875 4.554688 -9.171875 5.453125 -9.171875 C 6.359375 -9.171875 7.171875 -8.972656 7.890625 -8.578125 C 8.617188 -8.179688 9.191406 -7.628906 9.609375 -6.921875 C 10.023438 -6.210938 10.234375 -5.421875 10.234375 -4.546875 C 10.234375 -3.671875 10.023438 -2.878906 9.609375 -2.171875 C 9.191406 -1.472656 8.617188 -0.921875 7.890625 -0.515625 C 7.171875 -0.117188 6.359375 0.078125 5.453125 0.078125 Z M 5.453125 -0.78125 C 6.171875 -0.78125 6.820312 -0.941406 7.40625 -1.265625 C 7.988281 -1.585938 8.441406 -2.035156 8.765625 -2.609375 C 9.097656 -3.191406 9.265625 -3.835938 9.265625 -4.546875 C 9.265625 -5.253906 9.097656 -5.894531 8.765625 -6.46875 C 8.441406 -7.050781 7.988281 -7.503906 7.40625 -7.828125 C 6.820312 -8.148438 6.171875 -8.3125 5.453125 -8.3125 C 4.734375 -8.3125 4.082031 -8.148438 3.5 -7.828125 C 2.914062 -7.503906 2.457031 -7.050781 2.125 -6.46875 C 1.789062 -5.894531 1.625 -5.253906 1.625 -4.546875 C 1.625 -3.835938 1.789062 -3.191406 2.125 -2.609375 C 2.457031 -2.035156 2.914062 -1.585938 3.5 -1.265625 C 4.082031 -0.941406 4.734375 -0.78125 5.453125 -0.78125 Z M 5.453125 -0.78125 "/></g></g></g><g fill="rgb(0.389099%, 10.978699%, 26.269531%)" fill-opacity="1"><g transform="translate(204.390473, 268.47886)"><g><path d="M 1.484375 -9.09375 L 2.4375 -9.09375 L 2.4375 -0.828125 L 7.546875 -0.828125 L 7.546875 0 L 1.484375 0 Z M 1.484375 -9.09375 "/></g></g></g><g fill="rgb(0.389099%, 10.978699%, 26.269531%)" fill-opacity="1"><g transform="translate(216.413171, 268.47886)"><g><path d="M 5.453125 0.078125 C 4.554688 0.078125 3.738281 -0.117188 3 -0.515625 C 2.269531 -0.921875 1.695312 -1.472656 1.28125 -2.171875 C 0.875 -2.878906 0.671875 -3.671875 0.671875 -4.546875 C 0.671875 -5.421875 0.875 -6.207031 1.28125 -6.90625 C 1.695312 -7.613281 2.269531 -8.164062 3 -8.5625 C 3.738281 -8.96875 4.554688 -9.171875 5.453125 -9.171875 C 6.359375 -9.171875 7.171875 -8.972656 7.890625 -8.578125 C 8.617188 -8.179688 9.191406 -7.628906 9.609375 -6.921875 C 10.023438 -6.210938 10.234375 -5.421875 10.234375 -4.546875 C 10.234375 -3.671875 10.023438 -2.878906 9.609375 -2.171875 C 9.191406 -1.472656 8.617188 -0.921875 7.890625 -0.515625 C 7.171875 -0.117188 6.359375 0.078125 5.453125 0.078125 Z M 5.453125 -0.78125 C 6.171875 -0.78125 6.820312 -0.941406 7.40625 -1.265625 C 7.988281 -1.585938 8.441406 -2.035156 8.765625 -2.609375 C 9.097656 -3.191406 9.265625 -3.835938 9.265625 -4.546875 C 9.265625 -5.253906 9.097656 -5.894531 8.765625 -6.46875 C 8.441406 -7.050781 7.988281 -7.503906 7.40625 -7.828125 C 6.820312 -8.148438 6.171875 -8.3125 5.453125 -8.3125 C 4.734375 -8.3125 4.082031 -8.148438 3.5 -7.828125 C 2.914062 -7.503906 2.457031 -7.050781 2.125 -6.46875 C 1.789062 -5.894531 1.625 -5.253906 1.625 -4.546875 C 1.625 -3.835938 1.789062 -3.191406 2.125 -2.609375 C 2.457031 -2.035156 2.914062 -1.585938 3.5 -1.265625 C 4.082031 -0.941406 4.734375 -0.78125 5.453125 -0.78125 Z M 5.453125 -0.78125 "/></g></g></g><g fill="rgb(0.389099%, 10.978699%, 26.269531%)" fill-opacity="1"><g transform="translate(231.684864, 268.47886)"><g><path d="M 7.890625 -4.546875 L 8.8125 -4.546875 L 8.8125 -1.078125 C 8.382812 -0.703125 7.878906 -0.414062 7.296875 -0.21875 C 6.722656 -0.0195312 6.113281 0.078125 5.46875 0.078125 C 4.5625 0.078125 3.742188 -0.117188 3.015625 -0.515625 C 2.285156 -0.921875 1.710938 -1.472656 1.296875 -2.171875 C 0.878906 -2.878906 0.671875 -3.671875 0.671875 -4.546875 C 0.671875 -5.421875 0.878906 -6.210938 1.296875 -6.921875 C 1.710938 -7.628906 2.285156 -8.179688 3.015625 -8.578125 C 3.742188 -8.972656 4.566406 -9.171875 5.484375 -9.171875 C 6.179688 -9.171875 6.816406 -9.0625 7.390625 -8.84375 C 7.972656 -8.625 8.460938 -8.296875 8.859375 -7.859375 L 8.265625 -7.25 C 7.546875 -7.957031 6.632812 -8.3125 5.53125 -8.3125 C 4.789062 -8.3125 4.125 -8.148438 3.53125 -7.828125 C 2.9375 -7.503906 2.46875 -7.050781 2.125 -6.46875 C 1.789062 -5.894531 1.625 -5.253906 1.625 -4.546875 C 1.625 -3.835938 1.789062 -3.195312 2.125 -2.625 C 2.46875 -2.050781 2.929688 -1.597656 3.515625 -1.265625 C 4.109375 -0.941406 4.773438 -0.78125 5.515625 -0.78125 C 6.453125 -0.78125 7.242188 -1.015625 7.890625 -1.484375 Z M 7.890625 -4.546875 "/></g></g></g><g fill="rgb(0.389099%, 10.978699%, 26.269531%)" fill-opacity="1"><g transform="translate(246.098823, 268.47886)"><g><path d="M 4.609375 -3.140625 L 4.609375 0 L 3.65625 0 L 3.65625 -3.140625 L 0.015625 -9.09375 L 1.046875 -9.09375 L 4.15625 -3.984375 L 7.28125 -9.09375 L 8.234375 -9.09375 Z M 4.609375 -3.140625 "/></g></g></g></svg>